<?xml version="1.0" encoding="UTF-8" standalone="no"?>
<!-- Created with Inkscape (http://www.inkscape.org/) -->

<svg
   width="180"
   height="180"
   viewBox="0 0 180 180"
   version="1.1"
   id="svg1"
   inkscape:version="1.3.2 (091e20ef0f, 2023-11-25)"
   sodipodi:docname="icon.svg"
   inkscape:export-filename="icon-180.png"
   inkscape:export-xdpi="96"
   inkscape:export-ydpi="96"
   xmlns:inkscape="http://www.inkscape.org/namespaces/inkscape"
   xmlns:sodipodi="http://sodipodi.sourceforge.net/DTD/sodipodi-0.dtd"
   xmlns:xlink="http://www.w3.org/1999/xlink"
   xmlns="http://www.w3.org/2000/svg"
   xmlns:svg="http://www.w3.org/2000/svg">
  <sodipodi:namedview
     id="namedview1"
     pagecolor="#ffffff"
     bordercolor="#000000"
     borderopacity="0.25"
     inkscape:showpageshadow="2"
     inkscape:pageopacity="0.0"
     inkscape:pagecheckerboard="false"
     inkscape:deskcolor="#d1d1d1"
     inkscape:document-units="px"
     showgrid="true"
     inkscape:zoom="1.4142136"
     inkscape:cx="-109.9551"
     inkscape:cy="-1.0606602"
     inkscape:window-width="1870"
     inkscape:window-height="1011"
     inkscape:window-x="0"
     inkscape:window-y="0"
     inkscape:window-maximized="1"
     inkscape:current-layer="g32"
     inkscape:export-bgcolor="#00000000">
    <inkscape:grid
       id="grid1"
       units="px"
       originx="0"
       originy="0"
       spacingx="1.3229167"
       spacingy="1.3229167"
       empcolor="#0099e5"
       empopacity="0.30196078"
       color="#0099e5"
       opacity="0.14901961"
       empspacing="5"
       dotted="false"
       gridanglex="30"
       gridanglez="30"
       visible="true" />
  </sodipodi:namedview>
  <defs
     id="defs1">
    <linearGradient
       id="linearGradient29"
       inkscape:collect="always">
      <stop
         style="stop-color:#111111;stop-opacity:0;"
         offset="0"
         id="stop29" />
      <stop
         style="stop-color:#000000;stop-opacity:1;"
         offset="0.32766616"
         id="stop32" />
      <stop
         style="stop-color:#000000;stop-opacity:1;"
         offset="0.54036462"
         id="stop31" />
      <stop
         style="stop-color:#111111;stop-opacity:0;"
         offset="1"
         id="stop30" />
    </linearGradient>
    <linearGradient
       id="linearGradient25"
       inkscape:collect="always">
      <stop
         style="stop-color:#ffffff;stop-opacity:0.12721108;"
         offset="0"
         id="stop25" />
      <stop
         style="stop-color:#ffffff;stop-opacity:0;"
         offset="0.33994916"
         id="stop27" />
      <stop
         style="stop-color:#303030;stop-opacity:0.80011791;"
         offset="0.40030381"
         id="stop28" />
      <stop
         style="stop-color:#3d3d3d;stop-opacity:1;"
         offset="1"
         id="stop26" />
    </linearGradient>
    <linearGradient
       id="linearGradient17"
       inkscape:collect="always">
      <stop
         style="stop-color:#6a6a6a;stop-opacity:1;"
         offset="0"
         id="stop18" />
      <stop
         style="stop-color:#2c2c2c;stop-opacity:1;"
         offset="1"
         id="stop19" />
    </linearGradient>
    <linearGradient
       id="linearGradient16"
       inkscape:collect="always">
      <stop
         style="stop-color:#454545;stop-opacity:1;"
         offset="0"
         id="stop16" />
      <stop
         style="stop-color:#171717;stop-opacity:0.84414309;"
         offset="1"
         id="stop17" />
    </linearGradient>
    <linearGradient
       id="linearGradient6"
       inkscape:collect="always">
      <stop
         style="stop-color:#000000;stop-opacity:1;"
         offset="0"
         id="stop6" />
      <stop
         style="stop-color:#515151;stop-opacity:1;"
         offset="1"
         id="stop7" />
    </linearGradient>
    <linearGradient
       id="linearGradient1"
       inkscape:collect="always">
      <stop
         style="stop-color:#c3c3c3;stop-opacity:1;"
         offset="0"
         id="stop1" />
      <stop
         style="stop-color:#b9b9b9;stop-opacity:0.72017395;"
         offset="1"
         id="stop2" />
    </linearGradient>
    <radialGradient
       inkscape:collect="always"
       xlink:href="#linearGradient1"
       id="radialGradient2"
       cx="89.958339"
       cy="89.958339"
       fx="89.958339"
       fy="89.958339"
       r="84.666672"
       gradientUnits="userSpaceOnUse" />
    <linearGradient
       inkscape:collect="always"
       xlink:href="#linearGradient6"
       id="linearGradient7"
       x1="17.843752"
       y1="90.238315"
       x2="163.3646"
       y2="90.238315"
       gradientUnits="userSpaceOnUse" />
    <filter
       inkscape:collect="always"
       style="color-interpolation-filters:sRGB"
       id="filter7"
       x="-0.04835722"
       y="-0.04835722"
       width="1.0967144"
       height="1.0967144">
      <feGaussianBlur
         inkscape:collect="always"
         stdDeviation="3.4118707"
         id="feGaussianBlur7" />
    </filter>
    <linearGradient
       inkscape:collect="always"
       xlink:href="#linearGradient17"
       id="linearGradient19"
       x1="2.1546931"
       y1="147.79804"
       x2="60.567096"
       y2="147.79804"
       gradientUnits="userSpaceOnUse"
       gradientTransform="matrix(1.4276342,0,0,1.4276342,-152.67172,-95.243056)" />
    <linearGradient
       inkscape:collect="always"
       xlink:href="#linearGradient16"
       id="linearGradient20"
       x1="50.106499"
       y1="127.34927"
       x2="108.5189"
       y2="127.34927"
       gradientUnits="userSpaceOnUse"
       gradientTransform="matrix(1.3900055,0.32561336,-0.32561336,1.3900055,-171.56078,-173.20713)" />
    <radialGradient
       inkscape:collect="always"
       xlink:href="#linearGradient25"
       id="radialGradient26"
       cx="133.5409"
       cy="135.52738"
       fx="133.5409"
       fy="135.52738"
       r="35.505816"
       gradientTransform="matrix(1.7886018,0,0,1.7886056,256.5174,-238.7194)"
       gradientUnits="userSpaceOnUse" />
    <radialGradient
       inkscape:collect="always"
       xlink:href="#linearGradient29"
       id="radialGradient31"
       cx="269.81009"
       cy="118.2176"
       fx="269.81009"
       fy="118.2176"
       r="70.829994"
       gradientTransform="matrix(1,0,0,1.000002,217.08454,-107.48599)"
       gradientUnits="userSpaceOnUse" />
    <filter
       inkscape:collect="always"
       style="color-interpolation-filters:sRGB"
       id="filter32"
       x="-0.039289219"
       y="-0.039289127"
       width="1.0785784"
       height="1.0785783">
      <feGaussianBlur
         inkscape:collect="always"
         stdDeviation="2.0792435"
         id="feGaussianBlur32" />
    </filter>
    <radialGradient
       inkscape:collect="always"
       xlink:href="#linearGradient29"
       id="radialGradient34"
       gradientUnits="userSpaceOnUse"
       gradientTransform="matrix(1,0,0,1.000002,217.08454,-107.48599)"
       cx="269.81009"
       cy="118.2176"
       fx="269.81009"
       fy="118.2176"
       r="70.829994" />
    <radialGradient
       inkscape:collect="always"
       xlink:href="#linearGradient25"
       id="radialGradient35"
       gradientUnits="userSpaceOnUse"
       gradientTransform="matrix(1.7886018,0,0,1.7886056,256.5174,-238.7194)"
       cx="133.5409"
       cy="135.52738"
       fx="133.5409"
       fy="135.52738"
       r="35.505816" />
  </defs>
  <g
     inkscape:label="Layer 1"
     inkscape:groupmode="layer"
     id="layer1">
    <rect
       style="fill:#000000;stroke-width:1.97133;filter:url(#filter7);fill-opacity:0.7534582"
       id="rect7"
       width="169.33334"
       height="169.33334"
       x="5.291667"
       y="5.291667"
       ry="38.890873" />
    <rect
       style="fill:url(#radialGradient2);stroke-width:1.97133"
       id="rect1"
       width="169.33334"
       height="169.33334"
       x="5.291667"
       y="5.291667"
       ry="38.890873" />
    <g
       id="g6"
       style="fill:url(#linearGradient7)">
      <rect
         style="fill:url(#linearGradient7)"
         id="rect2"
         width="125.67709"
         height="13.229168"
         x="37.687504"
         y="31.072918" />
      <rect
         style="fill:url(#linearGradient7)"
         id="rect3"
         width="145.52084"
         height="13.229168"
         x="17.843752"
         y="57.531254" />
      <rect
         style="fill:url(#linearGradient7)"
         id="rect4"
         width="145.52084"
         height="13.229168"
         x="17.843752"
         y="83.989586" />
      <rect
         style="fill:url(#linearGradient7)"
         id="rect5"
         width="145.52084"
         height="13.229168"
         x="17.843752"
         y="110.44792" />
      <rect
         style="fill:url(#linearGradient7)"
         id="rect6"
         width="145.52084"
         height="12.374369"
         x="17.843752"
         y="137.02934" />
    </g>
    <path
       id="ellipse13"
       style="fill:url(#linearGradient19);stroke-width:1.59724"
       d="m -95.265912,74.066937 -12.671868,11.761322 c -3.81065,-0.203966 -7.62351,0.35788 -11.21331,1.652473 l -15.48782,-7.187453 -8.70931,8.705056 7.13268,15.386655 c -1.34202,3.65326 -1.92301,7.54233 -1.70728,11.4283 l -11.67279,12.55806 5.58978,10.973 17.53659,-2.1162 c 2.777,2.03418 5.89894,3.54946 9.21515,4.47269 l 8.76407,15.74919 12.161792,-1.92226 3.553695,-18.08039 c 2.364462,-1.69026 4.457003,-3.73161 6.205255,-6.0535 0.121349,-0.16598 0.240685,-0.33317 0.358379,-0.50163 l 18.076105,-3.54948 1.930732,-12.1618 -15.820871,-8.81465 c -0.933958,-3.22534 -2.429476,-6.26065 -4.417885,-8.966443 l 2.145706,-17.743166 z"
       sodipodi:nodetypes="cccccccccccccccccccccc" />
    <path
       id="path16"
       style="fill:url(#linearGradient20);fill-opacity:1;stroke-width:1.59724"
       d="m -80.972407,-8.0768026 -15.02039,8.56113403 c -3.66369,-1.067719 -7.504193,-1.390316 -11.294653,-0.948603 l -13.44029,-10.53045743 -10.4652,6.4892034 3.4353,16.6079176 c -2.13987,3.250883 -3.59256,6.904928 -4.26883,10.737683 l -14.22935,9.564742 2.93974,11.958688 17.55703,1.939309 c 2.23985,2.613939 4.9339,4.801322 7.95214,6.456582 l 4.94101,17.33298 12.27967,0.90226 7.583793,-16.79331 c 2.68765,-1.10643 5.19062,-2.61671 7.42237,-4.478664 0.15601,-0.133924 0.31033,-0.269489 0.46334,-0.406667 l 18.40923,0.66685 4.6537,-11.400888 -13.39344,-12.190718 c -0.17371,-3.353346 -0.93752,-6.649747 -2.25639,-9.737739 l 6.136,-16.78611157 z"
       sodipodi:nodetypes="cccccccccccccccccccccc" />
    <rect
       style="fill:#ffffff;stroke-width:1.97133;fill-opacity:0.44773936"
       id="rect28"
       width="169.33334"
       height="169.33334"
       x="5.291667"
       y="5.291667"
       ry="38.890873" />
    <g
       id="g32"
       transform="translate(-201.52543,83.444124)">
      <g
         id="g33"
         transform="translate(-185.94974,-15.55911)">
        <path
           id="path24"
           style="mix-blend-mode:normal;fill:url(#radialGradient31);fill-opacity:0.400864;stroke-width:1.50642;filter:url(#filter32)"
           d="m 479.61298,-52.774074 -0.0562,5.469561 a 59.407225,59.255288 0 0 0 -4.33689,0.77673 l -1.96251,-5.48424 -5.911,2.053638 0.92094,5.231234 a 59.407225,59.255288 0 0 0 -3.42182,1.273965 l -2.48919,-4.263241 -5.10778,1.985987 1.8595,4.948784 a 59.407225,59.255288 0 0 0 -3.81018,2.077153 l -3.65726,-4.227893 -4.98419,4.007214 2.73629,4.525089 a 59.407225,59.255288 0 0 0 -2.90398,2.542086 l -3.71612,-2.962801 -3.83376,3.739533 3.18945,3.574777 a 59.407225,59.255288 0 0 0 -2.58039,3.392372 l -4.78999,-2.545032 -3.40714,5.496046 4.12798,3.183431 a 59.407225,59.255288 0 0 0 -1.97719,3.613002 l -4.33101,-1.356343 -2.01251,4.913456 4.03678,2.0625013 a 59.407225,59.255288 0 0 0 -1.40055,3.9425201 l -4.89587,-0.58253 -1.40345,6.31688002 4.74292,1.40343998 a 59.407225,59.255288 0 0 0 -0.41193,4.37501 l -4.43696,0.29413 0.10561,5.3459796 4.08973,0.42076 a 59.407225,59.255288 0 0 0 0.29448,4.09259 l -4.48993,1.15038 0.76204,6.35517 4.83707,-0.39722 a 59.407225,59.255288 0 0 0 1.04449,4.52509 l -3.83082,1.78298 2.24494,4.98995 3.73963,-1.02096 a 59.407225,59.255288 0 0 0 1.69474,3.66307 l -3.44834,2.46555 2.79516,5.61074 4.0927,-1.98595 a 59.407225,59.255288 0 0 0 2.90108,3.86014 l -2.98637,3.10697 4.10737,3.8837 3.03931,-2.24491 a 59.407225,59.255288 0 0 0 2.83051,2.8245 l -2.13314,3.25406 4.42223,4.18087 3.03637,-3.26291 a 59.407225,59.255288 0 0 0 4.12211,2.69801 l -1.65945,3.97199 5.4403,2.18015 1.94185,-3.06574 a 59.407225,59.255288 0 0 0 3.75729,1.40044 l -0.78852,3.67777 5.42555,2.2596 1.58294,-3.96607 a 59.407225,59.255288 0 0 0 4.84294,1.05036 l -0.11168,4.31912 6.07284,0.10892 0.7444,-3.76894 a 59.407225,59.255288 0 0 0 2.98639,0.21189 59.407225,59.255288 0 0 0 1.05333,-0.0763 l 0.56491,3.52471 5.66092,0.10892 0.0412,-4.08082 a 59.407225,59.255288 0 0 0 4.81353,-0.87677 l 1.50054,4.19554 5.91395,-2.05365 -0.69143,-3.92781 a 59.407225,59.255288 0 0 0 3.85736,-1.43581 l 1.82124,3.12167 5.11071,-1.98599 -1.42702,-3.7954 a 59.407225,59.255288 0 0 0 4.16331,-2.32139 l 2.87166,3.31881 4.98125,-4.00727 -2.15671,-3.56596 a 59.407225,59.255288 0 0 0 3.09823,-2.88335 l 2.94224,2.34495 3.83376,-3.73955 -2.60388,-2.91867 a 59.407225,59.255288 0 0 0 2.74219,-3.65124 l 4.04262,2.14779 3.4101,-5.49604 -3.59249,-2.77151 a 59.407225,59.255288 0 0 0 2.08902,-3.82193 l 3.68075,1.15041 2.01545,-4.91052 -3.60132,-1.83889 a 59.407225,59.255288 0 0 0 1.26223,-4.13085 l 4.59876,0.54725 1.40344,-6.31689 -4.55167,-1.34457 a 59.407225,59.255288 0 0 0 0.32054,-4.43976 l 4.33689,-0.28846 -0.10599,-5.3488896 -4.06033,-0.4178 a 59.407225,59.255288 0 0 0 -0.34423,-4.08671 l 4.5105,-1.15629 -0.76205,-6.35512 -5.00775,0.41189 a 59.407225,59.255288 0 0 0 -1.24455,-4.36623 l 4.19858,-1.9565621 -2.242,-4.9899413 -4.18978,1.144521 a 59.407225,59.255288 0 0 0 -1.68001,-3.477698 l 3.88378,-2.77447 -2.79515,-5.610773 -4.77535,2.315496 a 59.407225,59.255288 0 0 0 -2.73336,-3.657122 l 3.49837,-3.639491 -4.10447,-3.883727 -3.719,2.748031 a 59.407225,59.255288 0 0 0 -2.70092,-2.494954 l 2.68328,-4.086727 -4.42514,-4.180875 -3.73669,4.016119 a 59.407225,59.255288 0 0 0 -3.84553,-2.427342 l 2.08611,-4.995834 -5.44027,-2.180142 -2.63039,4.151408 a 59.407225,59.255288 0 0 0 -3.31889,-1.338712 l 1.03568,-4.828095 -5.42258,-2.259613 -2.0478,5.128229 a 59.407225,59.255288 0 0 0 -4.41343,-0.888562 l 0.14702,-5.640178 -6.07285,-0.108932 -0.99153,5.013487 a 59.407225,59.255288 0 0 0 -2.73924,-0.06743 59.407225,59.255288 0 0 0 -0.83562,0.05885 l -0.78264,-4.895796 z" />
        <path
           id="path29"
           style="fill:url(#radialGradient26);stroke-width:1.50642"
           d="m 488.08721,-59.820282 -0.0562,5.469561 a 59.407225,59.255288 0 0 0 -4.33689,0.77673 l -1.96251,-5.48424 -5.911,2.053638 0.92095,5.231234 a 59.407225,59.255288 0 0 0 -3.42183,1.273965 l -2.48919,-4.263241 -5.10777,1.985987 1.8595,4.948784 a 59.407225,59.255288 0 0 0 -3.81019,2.077153 l -3.65726,-4.227893 -4.98419,4.007214 2.73629,4.525089 a 59.407225,59.255288 0 0 0 -2.90398,2.542086 l -3.71612,-2.962801 -3.83376,3.739533 3.18945,3.574777 a 59.407225,59.255288 0 0 0 -2.58039,3.392372 l -4.78999,-2.545032 -3.40714,5.496046 4.12799,3.183431 a 59.407225,59.255288 0 0 0 -1.9772,3.613002 l -4.33101,-1.356343 -2.01251,4.913456 4.03678,2.062501 a 59.407225,59.255288 0 0 0 -1.40055,3.942515 l -4.89587,-0.582525 -1.40345,6.3168789 4.74292,1.40345 a 59.407225,59.255288 0 0 0 -0.41193,4.37500022 l -4.43696,0.29413 0.10561,5.34597998 4.08974,0.42076 a 59.407225,59.255288 0 0 0 0.29447,4.09259 l -4.48993,1.1503799 0.76204,6.35517 4.83708,-0.39722 a 59.407225,59.255288 0 0 0 1.04448,4.52509 l -3.83082,1.78298 2.24494,4.98995 3.73963,-1.02096 a 59.407225,59.255288 0 0 0 1.69474,3.66307 l -3.44834,2.46555 2.79516,5.61074 4.0927,-1.98595 a 59.407225,59.255288 0 0 0 2.90108,3.86014 l -2.98637,3.10697 4.10737,3.8837 3.03932,-2.24491 a 59.407225,59.255288 0 0 0 2.8305,2.8245 l -2.13314,3.25406 4.42223,4.18087 3.03637,-3.26291 a 59.407225,59.255288 0 0 0 4.12211,2.69801 l -1.65945,3.97199 5.4403,2.18015 1.94185,-3.06574 a 59.407225,59.255288 0 0 0 3.75729,1.40044 l -0.78852,3.67777 5.42556,2.2596 1.58293,-3.96607 a 59.407225,59.255288 0 0 0 4.84294,1.05036 l -0.11168,4.31912 6.07284,0.10892 0.7444,-3.76894 a 59.407225,59.255288 0 0 0 2.98639,0.21189 59.407225,59.255288 0 0 0 1.05334,-0.0763 l 0.56491,3.52471 5.66091,0.10892 0.0412,-4.08082 a 59.407225,59.255288 0 0 0 4.81353,-0.87677 l 1.50054,4.19554 5.91395,-2.05365 -0.69143,-3.92781 a 59.407225,59.255288 0 0 0 3.85736,-1.43581 l 1.82124,3.12167 5.11071,-1.98599 -1.42702,-3.7954 a 59.407225,59.255288 0 0 0 4.16331,-2.32139 l 2.87166,3.31881 4.98125,-4.00727 -2.15671,-3.56596 a 59.407225,59.255288 0 0 0 3.09823,-2.88335 l 2.94224,2.34495 3.83376,-3.73955 -2.60388,-2.91867 a 59.407225,59.255288 0 0 0 2.74219,-3.65124 l 4.04262,2.14779 3.4101,-5.49604 -3.59249,-2.77151 a 59.407225,59.255288 0 0 0 2.08902,-3.82193 l 3.68075,1.15041 2.01545,-4.91052 -3.60132,-1.83889 a 59.407225,59.255288 0 0 0 1.26223,-4.13085 l 4.59876,0.54725 1.40344,-6.31688 -4.55167,-1.34458 a 59.407225,59.255288 0 0 0 0.32054,-4.4397599 l 4.33689,-0.28846 -0.10599,-5.34888 -4.06033,-0.41781 a 59.407225,59.255288 0 0 0 -0.34423,-4.08671 l 4.5105,-1.1562902 -0.76205,-6.355121 -5.00775,0.411891 a 59.407225,59.255288 0 0 0 -1.24455,-4.3662259 l 4.19858,-1.956565 -2.242,-4.989941 -4.18978,1.144521 a 59.407225,59.255288 0 0 0 -1.68001,-3.477698 l 3.88378,-2.77447 -2.79515,-5.610773 -4.77535,2.315496 a 59.407225,59.255288 0 0 0 -2.73336,-3.657122 l 3.49837,-3.639491 -4.10447,-3.883727 -3.719,2.748031 a 59.407225,59.255288 0 0 0 -2.70095,-2.494954 l 2.68328,-4.086727 -4.42514,-4.180875 -3.73669,4.016119 a 59.407225,59.255288 0 0 0 -3.84553,-2.427342 l 2.08611,-4.995834 -5.44027,-2.180142 -2.63039,4.151408 a 59.407225,59.255288 0 0 0 -3.31889,-1.338712 l 1.03568,-4.828095 -5.42258,-2.259613 -2.0478,5.128229 a 59.407225,59.255288 0 0 0 -4.41343,-0.888562 l 0.14702,-5.640178 -6.07284,-0.108932 -0.99154,5.013487 a 59.407225,59.255288 0 0 0 -2.73924,-0.06743 59.407225,59.255288 0 0 0 -0.83562,0.05885 l -0.78264,-4.895796 z" />
      </g>
      <g
         id="g34"
         transform="matrix(0.46906912,0.04481113,-0.04481113,0.46906912,16.638972,33.454765)">
        <path
           id="path33"
           style="mix-blend-mode:normal;fill:url(#radialGradient34);fill-opacity:0.400864;stroke-width:1.50642;filter:url(#filter32)"
           d="m 479.61298,-52.774074 -0.0562,5.469561 a 59.407225,59.255288 0 0 0 -4.33689,0.77673 l -1.96251,-5.48424 -5.911,2.053638 0.92094,5.231234 a 59.407225,59.255288 0 0 0 -3.42182,1.273965 l -2.48919,-4.263241 -5.10778,1.985987 1.8595,4.948784 a 59.407225,59.255288 0 0 0 -3.81018,2.077153 l -3.65726,-4.227893 -4.98419,4.007214 2.73629,4.525089 a 59.407225,59.255288 0 0 0 -2.90398,2.542086 l -3.71612,-2.962801 -3.83376,3.739533 3.18945,3.574777 a 59.407225,59.255288 0 0 0 -2.58039,3.392372 l -4.78999,-2.545032 -3.40714,5.496046 4.12798,3.183431 a 59.407225,59.255288 0 0 0 -1.97719,3.613002 l -4.33101,-1.356343 -2.01251,4.913456 4.03678,2.0625013 a 59.407225,59.255288 0 0 0 -1.40055,3.9425201 l -4.89587,-0.58253 -1.40345,6.31688002 4.74292,1.40343998 a 59.407225,59.255288 0 0 0 -0.41193,4.37501 l -4.43696,0.29413 0.10561,5.3459796 4.08973,0.42076 a 59.407225,59.255288 0 0 0 0.29448,4.09259 l -4.48993,1.15038 0.76204,6.35517 4.83707,-0.39722 a 59.407225,59.255288 0 0 0 1.04449,4.52509 l -3.83082,1.78298 2.24494,4.98995 3.73963,-1.02096 a 59.407225,59.255288 0 0 0 1.69474,3.66307 l -3.44834,2.46555 2.79516,5.61074 4.0927,-1.98595 a 59.407225,59.255288 0 0 0 2.90108,3.86014 l -2.98637,3.10697 4.10737,3.8837 3.03931,-2.24491 a 59.407225,59.255288 0 0 0 2.83051,2.8245 l -2.13314,3.25406 4.42223,4.18087 3.03637,-3.26291 a 59.407225,59.255288 0 0 0 4.12211,2.69801 l -1.65945,3.97199 5.4403,2.18015 1.94185,-3.06574 a 59.407225,59.255288 0 0 0 3.75729,1.40044 l -0.78852,3.67777 5.42555,2.2596 1.58294,-3.96607 a 59.407225,59.255288 0 0 0 4.84294,1.05036 l -0.11168,4.31912 6.07284,0.10892 0.7444,-3.76894 a 59.407225,59.255288 0 0 0 2.98639,0.21189 59.407225,59.255288 0 0 0 1.05333,-0.0763 l 0.56491,3.52471 5.66092,0.10892 0.0412,-4.08082 a 59.407225,59.255288 0 0 0 4.81353,-0.87677 l 1.50054,4.19554 5.91395,-2.05365 -0.69143,-3.92781 a 59.407225,59.255288 0 0 0 3.85736,-1.43581 l 1.82124,3.12167 5.11071,-1.98599 -1.42702,-3.7954 a 59.407225,59.255288 0 0 0 4.16331,-2.32139 l 2.87166,3.31881 4.98125,-4.00727 -2.15671,-3.56596 a 59.407225,59.255288 0 0 0 3.09823,-2.88335 l 2.94224,2.34495 3.83376,-3.73955 -2.60388,-2.91867 a 59.407225,59.255288 0 0 0 2.74219,-3.65124 l 4.04262,2.14779 3.4101,-5.49604 -3.59249,-2.77151 a 59.407225,59.255288 0 0 0 2.08902,-3.82193 l 3.68075,1.15041 2.01545,-4.91052 -3.60132,-1.83889 a 59.407225,59.255288 0 0 0 1.26223,-4.13085 l 4.59876,0.54725 1.40344,-6.31689 -4.55167,-1.34457 a 59.407225,59.255288 0 0 0 0.32054,-4.43976 l 4.33689,-0.28846 -0.10599,-5.3488896 -4.06033,-0.4178 a 59.407225,59.255288 0 0 0 -0.34423,-4.08671 l 4.5105,-1.15629 -0.76205,-6.35512 -5.00775,0.41189 a 59.407225,59.255288 0 0 0 -1.24455,-4.36623 l 4.19858,-1.9565621 -2.242,-4.9899413 -4.18978,1.144521 a 59.407225,59.255288 0 0 0 -1.68001,-3.477698 l 3.88378,-2.77447 -2.79515,-5.610773 -4.77535,2.315496 a 59.407225,59.255288 0 0 0 -2.73336,-3.657122 l 3.49837,-3.639491 -4.10447,-3.883727 -3.719,2.748031 a 59.407225,59.255288 0 0 0 -2.70092,-2.494954 l 2.68328,-4.086727 -4.42514,-4.180875 -3.73669,4.016119 a 59.407225,59.255288 0 0 0 -3.84553,-2.427342 l 2.08611,-4.995834 -5.44027,-2.180142 -2.63039,4.151408 a 59.407225,59.255288 0 0 0 -3.31889,-1.338712 l 1.03568,-4.828095 -5.42258,-2.259613 -2.0478,5.128229 a 59.407225,59.255288 0 0 0 -4.41343,-0.888562 l 0.14702,-5.640178 -6.07285,-0.108932 -0.99153,5.013487 a 59.407225,59.255288 0 0 0 -2.73924,-0.06743 59.407225,59.255288 0 0 0 -0.83562,0.05885 l -0.78264,-4.895796 z" />
        <path
           id="path34"
           style="fill:url(#radialGradient35);stroke-width:1.50642"
           d="m 488.08721,-59.820282 -0.0562,5.469561 a 59.407225,59.255288 0 0 0 -4.33689,0.77673 l -1.96251,-5.48424 -5.911,2.053638 0.92095,5.231234 a 59.407225,59.255288 0 0 0 -3.42183,1.273965 l -2.48919,-4.263241 -5.10777,1.985987 1.8595,4.948784 a 59.407225,59.255288 0 0 0 -3.81019,2.077153 l -3.65726,-4.227893 -4.98419,4.007214 2.73629,4.525089 a 59.407225,59.255288 0 0 0 -2.90398,2.542086 l -3.71612,-2.962801 -3.83376,3.739533 3.18945,3.574777 a 59.407225,59.255288 0 0 0 -2.58039,3.392372 l -4.78999,-2.545032 -3.40714,5.496046 4.12799,3.183431 a 59.407225,59.255288 0 0 0 -1.9772,3.613002 l -4.33101,-1.356343 -2.01251,4.913456 4.03678,2.062501 a 59.407225,59.255288 0 0 0 -1.40055,3.942515 l -4.89587,-0.582525 -1.40345,6.3168789 4.74292,1.40345 a 59.407225,59.255288 0 0 0 -0.41193,4.37500022 l -4.43696,0.29413 0.10561,5.34597998 4.08974,0.42076 a 59.407225,59.255288 0 0 0 0.29447,4.09259 l -4.48993,1.1503799 0.76204,6.35517 4.83708,-0.39722 a 59.407225,59.255288 0 0 0 1.04448,4.52509 l -3.83082,1.78298 2.24494,4.98995 3.73963,-1.02096 a 59.407225,59.255288 0 0 0 1.69474,3.66307 l -3.44834,2.46555 2.79516,5.61074 4.0927,-1.98595 a 59.407225,59.255288 0 0 0 2.90108,3.86014 l -2.98637,3.10697 4.10737,3.8837 3.03932,-2.24491 a 59.407225,59.255288 0 0 0 2.8305,2.8245 l -2.13314,3.25406 4.42223,4.18087 3.03637,-3.26291 a 59.407225,59.255288 0 0 0 4.12211,2.69801 l -1.65945,3.97199 5.4403,2.18015 1.94185,-3.06574 a 59.407225,59.255288 0 0 0 3.75729,1.40044 l -0.78852,3.67777 5.42556,2.2596 1.58293,-3.96607 a 59.407225,59.255288 0 0 0 4.84294,1.05036 l -0.11168,4.31912 6.07284,0.10892 0.7444,-3.76894 a 59.407225,59.255288 0 0 0 2.98639,0.21189 59.407225,59.255288 0 0 0 1.05334,-0.0763 l 0.56491,3.52471 5.66091,0.10892 0.0412,-4.08082 a 59.407225,59.255288 0 0 0 4.81353,-0.87677 l 1.50054,4.19554 5.91395,-2.05365 -0.69143,-3.92781 a 59.407225,59.255288 0 0 0 3.85736,-1.43581 l 1.82124,3.12167 5.11071,-1.98599 -1.42702,-3.7954 a 59.407225,59.255288 0 0 0 4.16331,-2.32139 l 2.87166,3.31881 4.98125,-4.00727 -2.15671,-3.56596 a 59.407225,59.255288 0 0 0 3.09823,-2.88335 l 2.94224,2.34495 3.83376,-3.73955 -2.60388,-2.91867 a 59.407225,59.255288 0 0 0 2.74219,-3.65124 l 4.04262,2.14779 3.4101,-5.49604 -3.59249,-2.77151 a 59.407225,59.255288 0 0 0 2.08902,-3.82193 l 3.68075,1.15041 2.01545,-4.91052 -3.60132,-1.83889 a 59.407225,59.255288 0 0 0 1.26223,-4.13085 l 4.59876,0.54725 1.40344,-6.31688 -4.55167,-1.34458 a 59.407225,59.255288 0 0 0 0.32054,-4.4397599 l 4.33689,-0.28846 -0.10599,-5.34888 -4.06033,-0.41781 a 59.407225,59.255288 0 0 0 -0.34423,-4.08671 l 4.5105,-1.1562902 -0.76205,-6.355121 -5.00775,0.411891 a 59.407225,59.255288 0 0 0 -1.24455,-4.3662259 l 4.19858,-1.956565 -2.242,-4.989941 -4.18978,1.144521 a 59.407225,59.255288 0 0 0 -1.68001,-3.477698 l 3.88378,-2.77447 -2.79515,-5.610773 -4.77535,2.315496 a 59.407225,59.255288 0 0 0 -2.73336,-3.657122 l 3.49837,-3.639491 -4.10447,-3.883727 -3.719,2.748031 a 59.407225,59.255288 0 0 0 -2.70095,-2.494954 l 2.68328,-4.086727 -4.42514,-4.180875 -3.73669,4.016119 a 59.407225,59.255288 0 0 0 -3.84553,-2.427342 l 2.08611,-4.995834 -5.44027,-2.180142 -2.63039,4.151408 a 59.407225,59.255288 0 0 0 -3.31889,-1.338712 l 1.03568,-4.828095 -5.42258,-2.259613 -2.0478,5.128229 a 59.407225,59.255288 0 0 0 -4.41343,-0.888562 l 0.14702,-5.640178 -6.07284,-0.108932 -0.99154,5.013487 a 59.407225,59.255288 0 0 0 -2.73924,-0.06743 59.407225,59.255288 0 0 0 -0.83562,0.05885 l -0.78264,-4.895796 z" />
      </g>
    </g>
  </g>
</svg>
